<svg width="1943" height="773" viewBox="0 0 1943 773" fill="none" xmlns="http://www.w3.org/2000/svg">
<g clip-path="url(#clip0_70_394)">
<rect width="1943" height="773" fill="#25265E"/>
<g filter="url(#filter0_f_70_394)">
<ellipse cx="910.5" cy="387" rx="553" ry="495" fill="#D53346" fill-opacity="0.82"/>
</g>
<g filter="url(#filter1_f_70_394)">
<ellipse cx="937.262" cy="447" rx="283.762" ry="254" fill="#F8DADE" fill-opacity="0.81"/>
</g>
<path d="M8 -127.5L946.5 -153L873.072 342L-6 184.5L8 -127.5Z" fill="url(#paint0_linear_70_394)"/>
<path d="M36 -168H956.5L888.937 240L-100 31L36 -168Z" fill="#3F3C7A"/>
<path d="M0 940H742L676.339 428.006L0 180V940Z" fill="url(#paint1_linear_70_394)"/>
<path d="M-295 937.898H743.5L675.937 427L-295 521.398V937.898Z" fill="#3F3C7A"/>
<path d="M1096.5 292.865L1619 -338L2857.5 331L1619 1306.5L1096.5 464.361V292.865Z" fill="#3F3C7A"/>
<path d="M1519.26 -259.949C1459.01 -279.746 1222.3 -182.471 1334.93 -87.8486C1468.51 24.3715 1385.27 170.526 1199.23 273.723" stroke="white" stroke-width="1.041"/>
<g filter="url(#filter2_f_70_394)">
<path fill-rule="evenodd" clip-rule="evenodd" d="M1182.12 305.819C1193.9 301.012 1220.52 278.749 1210.55 268.303C1202.83 260.205 1189.36 265.498 1177.18 270.286C1172.13 272.27 1167.31 274.168 1163.2 274.989C1163.2 274.991 1163.19 274.993 1163.19 274.994C1151.56 275.064 1144.16 276.177 1142.02 293.962C1142.02 295.885 1141.89 297.974 1141.76 300.103C1141.17 309.573 1140.52 319.833 1151.14 319.833C1159.5 319.833 1172.8 313.478 1181.24 306.155C1181.52 306.055 1181.81 305.944 1182.12 305.819Z" fill="#030002"/>
<ellipse cx="1040.64" cy="369.473" rx="109.091" ry="89.5621" fill="url(#paint2_linear_70_394)"/>
<path d="M903.577 164.465C908.949 260.639 926.111 364.94 910.515 365.812C894.919 366.683 860.04 338.311 854.667 242.137C846.04 87.6982 855.189 75.1015 870.785 74.2302C886.381 73.359 898.204 68.291 903.577 164.465Z" fill="url(#paint3_linear_70_394)"/>
<path fill-rule="evenodd" clip-rule="evenodd" d="M885.412 417.959C924.128 413.003 959.633 383.327 959.633 347.66C959.633 311.016 924.977 281.311 882.225 281.311C839.474 281.311 804.818 311.016 804.818 347.66C804.818 356.136 806.672 364.472 810.052 372.277C790.178 377.161 776.665 386.76 776.665 397.803C776.665 413.795 805.005 426.759 839.965 426.759C857.797 426.759 873.907 423.386 885.412 417.959Z" fill="#580207"/>
<path d="M692.052 531.891C735.674 517.586 769.832 439.133 786.558 402.615C803.284 366.097 825.493 327.031 796.055 332.755C787.621 328.893 688.471 492.526 688.471 492.526C688.471 492.526 648.43 546.195 692.052 531.891Z" fill="url(#paint4_linear_70_394)"/>
<path d="M828.381 316.87C832.483 329.11 891.874 373.381 728.262 402.508C669.725 422.124 613.734 450.736 614.844 415.862C610.742 403.621 654.871 377.797 713.408 358.181C771.946 338.565 824.28 304.629 828.381 316.87Z" fill="url(#paint5_linear_70_394)"/>
<path d="M787.308 232.203C931.011 321.297 857.112 329.13 846.698 342.585C836.285 356.039 802.655 312.67 751.48 273.062C700.305 233.454 667.262 190.438 677.675 176.984C697.003 152.013 736.134 192.595 787.308 232.203Z" fill="url(#paint6_linear_70_394)"/>
<path d="M1107.08 448.413C1147.01 507.39 1129.75 508.865 1118.13 515.377C1106.52 521.888 1062.09 481.004 1053.63 465.911C1045.16 450.818 1068.57 456.885 1080.18 450.373C1091.79 443.862 1098.61 433.32 1107.08 448.413Z" fill="#010107"/>
<path d="M1026.63 286.788C1031.09 297.426 999.367 303.76 989.953 324.824C961.084 389.419 918.181 299.079 913.719 288.441C909.256 277.803 948.8 289.643 973.792 286.301C995.068 277.376 1022.17 276.15 1026.63 286.788Z" fill="url(#paint7_linear_70_394)"/>
<path d="M1161.33 271.375C1153.29 338.074 1107.08 387.115 1058.11 380.911C1009.15 374.707 975.981 315.607 984.022 248.907C992.063 182.207 1039.09 159.048 1088.05 165.252C1137.01 171.456 1169.37 204.675 1161.33 271.375Z" fill="#010107"/>
<path d="M1010.63 215.2C997.072 222.161 989.445 255.082 994.401 289.057C1004.13 333.228 1034.55 308.847 1050.06 294.667C1062.03 283.721 1065.5 263.673 1054.11 242.651C1040.44 217.425 1024.19 208.24 1010.63 215.2Z" fill="#D9D9D9"/>
<path fill-rule="evenodd" clip-rule="evenodd" d="M997.659 234.177C1001.89 222.16 1007.96 213.485 1014.9 210.737C1029.55 204.943 1045.59 215.461 1057.57 241.744C1065.4 258.925 1063.82 274.74 1056.33 285.539C1058.71 276.2 1057.78 265.026 1052.39 253.205C1040.41 226.921 1024.37 216.403 1009.72 222.198C1005.25 223.966 1001.15 228.188 997.659 234.177Z" fill="#7E153F"/>
<path fill-rule="evenodd" clip-rule="evenodd" d="M999.916 227.881C995.828 241.718 994.411 260.059 996.862 278.782C1006 323.109 1037.4 299.248 1053.44 285.333C1056.09 283.034 1058.35 280.312 1060.15 277.245C1058.54 284.774 1054.76 291.21 1049.36 295.891C1033.32 309.807 1001.92 333.668 992.784 289.34C989.64 265.326 992.86 241.942 999.916 227.881Z" fill="#7E153F"/>
<path d="M1157.64 265.159C1157.84 281.497 1138.04 319.223 1117.75 316.689C1098.77 317.048 1081.89 296.175 1081.65 276.518C1102.62 234.101 1128.28 224.277 1149.21 228.55C1157.26 234.234 1157.44 248.821 1157.64 265.159Z" fill="#D9D9D9"/>
<path fill-rule="evenodd" clip-rule="evenodd" d="M1124.69 315.87C1140.41 312.43 1154.55 279.543 1154.37 264.566C1154.18 249.633 1154.02 236.161 1148.74 229.585C1149.68 229.726 1150.61 229.906 1151.53 230.123C1158.43 235.675 1158.6 249.878 1158.8 265.786C1158.99 281.693 1142.11 318.382 1124.74 315.869C1124.72 315.869 1124.71 315.87 1124.69 315.87Z" fill="#800F45"/>
<path fill-rule="evenodd" clip-rule="evenodd" d="M1154.78 241.77C1154.29 234.952 1153.16 229.967 1151.5 228.479C1140.42 218.559 1118.08 225.662 1103.5 242.481C1088.76 257.088 1076.37 273.123 1080.31 280.578C1080.62 281.161 1080.94 281.762 1081.28 282.379C1083.65 274.023 1093.49 262.112 1104.68 251.024C1119.26 234.205 1141.6 227.102 1152.67 237.022C1153.52 237.777 1154.22 239.432 1154.78 241.77Z" fill="#800F45"/>
<path fill-rule="evenodd" clip-rule="evenodd" d="M1155.17 264.083C1150.26 283.072 1133.32 310.449 1116.01 308.216C1099.98 308.519 1085.42 293.516 1080.79 276.642C1080.35 277.842 1079.92 279.067 1079.49 280.316C1082.26 300.711 1102.01 320.587 1121.18 318.181C1140.64 318.611 1155.18 282.664 1155.17 264.083Z" fill="#800F45"/>
<g filter="url(#filter3_f_70_394)">
<path d="M1066.09 373.501C1063.94 387.74 1042.7 393.175 995.789 386.098C948.881 379.02 929.195 364.261 931.343 350.023C941.829 316.646 948.929 322.961 1016.14 350.023C1063.05 357.1 1068.24 359.262 1066.09 373.501Z" fill="url(#paint8_linear_70_394)"/>
</g>
</g>
<g filter="url(#filter4_d_70_394)">
<path d="M491.11 545.065L504.308 552.867C509.686 556.046 512.738 559.221 513.463 562.392C514.207 565.543 512.706 568.985 508.958 572.716C506.492 575.171 503.775 576.847 500.808 577.743C497.86 578.619 495.09 578.569 492.5 577.592L492.209 577.882C494.532 580.211 495.517 582.58 495.164 584.99C494.81 587.401 493.265 589.969 490.527 592.695C486.662 596.542 482.371 598.812 477.653 599.505C472.977 600.192 468.458 599.246 464.094 596.667L448.525 587.464L491.11 545.065ZM483.041 567.472L487.464 570.086C489.493 571.285 491.366 571.684 493.085 571.283C494.804 570.882 496.547 569.801 498.314 568.042C500.081 566.283 500.872 564.747 500.685 563.435C500.519 562.104 499.421 560.839 497.392 559.64L493.323 557.235L483.041 567.472ZM476.429 574.055L464.516 585.916L469.363 588.781C471.368 589.967 473.359 590.342 475.336 589.909C477.337 589.489 479.395 588.226 481.512 586.118C485.318 582.329 485.192 579.235 481.135 576.837L476.429 574.055Z" fill="#253B8D"/>
<path d="M517.415 600.551L503.729 619.516L493.439 615.146L528.603 566.416L542.072 572.136C547.772 574.557 551.113 577.529 552.096 581.053C553.105 584.587 551.845 588.799 548.317 593.687C543.875 599.842 538.414 603.141 531.934 603.582L527.147 629.462L516.138 624.786L521.085 602.109L517.415 600.551ZM523.043 592.752L525.692 593.876C528.113 594.905 530.286 595.044 532.211 594.294C534.153 593.521 535.989 591.935 537.721 589.536C539.517 587.047 540.224 585.039 539.843 583.513C539.503 581.975 538.16 580.708 535.814 579.712L533.242 578.619L523.043 592.752Z" fill="#253B8D"/>
<path d="M573.984 646.789L548.201 638.488L577.041 585.769L602.824 594.07L598.189 602.544L583.047 597.669L576.182 610.218L590.228 614.74L585.573 623.25L571.527 618.728L563.538 633.332L578.679 638.207L573.984 646.789Z" fill="#253B8D"/>
<path d="M629.273 662.396L631.823 647.591L616.625 643.814L607.374 656.953L596.524 654.256L634.438 602.26L649.158 605.918L640.163 665.102L629.273 662.396ZM633.642 637.96L635.968 624.313C636.112 623.484 636.513 621.422 637.17 618.126C637.864 614.812 638.369 612.609 638.684 611.515C637.421 613.6 635.97 615.889 634.329 618.382C632.699 620.85 628.8 626.464 622.633 635.224L633.642 637.96Z" fill="#253B8D"/>
<path d="M698.036 677.79L686.318 675.605L684.381 649.307L678.623 652.757L672.216 672.975L661.226 670.926L679.378 613.64L690.369 615.69L681.367 644.097L687.925 636.232L704.269 618.282L716.027 620.475L694.51 642.731L698.036 677.79Z" fill="#253B8D"/>
<path d="M765.581 687.679L754.523 686.338L764.667 637.104L753.242 635.718L755.224 626.097L789.133 630.209L787.15 639.83L775.725 638.445L765.581 687.679Z" fill="#253B8D"/>
<path d="M841.491 695.46L830.345 694.595L833.79 668.474L819.079 667.332L815.633 693.453L804.487 692.587L812.345 633.011L823.491 633.876L820.369 657.552L835.08 658.694L838.203 635.018L849.35 635.883L841.491 695.46Z" fill="#253B8D"/>
<path d="M898.916 698.655L871.847 697.675L875.535 637.696L902.604 638.676L902.011 648.317L886.115 647.741L885.237 662.018L899.983 662.552L899.388 672.234L884.642 671.7L883.62 688.316L899.516 688.891L898.916 698.655Z" fill="#253B8D"/>
<path d="M950.114 639.698L965.444 639.456C971.69 639.357 976.271 640.505 979.186 642.897C982.1 645.263 983.628 649.089 983.77 654.376C983.864 657.855 983.188 660.784 981.745 663.163C980.3 665.515 978.283 666.958 975.693 667.493L975.705 667.904C979.125 668.699 981.62 670.249 983.189 672.554C984.758 674.858 985.595 677.942 985.698 681.804C985.845 687.255 984.494 691.551 981.645 694.693C978.823 697.807 974.878 699.403 969.809 699.483L951.726 699.769L950.114 639.698ZM961.283 663.692L966.421 663.611C968.777 663.574 970.418 662.917 971.343 661.642C972.268 660.367 972.697 658.483 972.63 655.99C972.563 653.498 971.968 651.726 970.843 650.675C969.718 649.596 967.977 649.076 965.62 649.113L960.894 649.188L961.283 663.692ZM961.534 673.019L961.985 689.824L967.615 689.735C969.944 689.698 971.651 688.959 972.736 687.517C973.849 686.074 974.365 683.86 974.285 680.874C974.141 675.505 971.712 672.858 967 672.933L961.534 673.019Z" fill="#253B8D"/>
<path d="M1011.84 698.34L1007.12 638.433L1017.63 637.945L1022.35 697.852L1011.84 698.34Z" fill="#253B8D"/>
<path d="M1085.63 693.422L1072.03 694.508L1047.66 652.853L1047.13 652.895C1048.25 656.126 1049.07 659.629 1049.59 663.403L1054 695.947L1043.68 696.771L1035.6 637.224L1049.28 636.131L1073.43 677.351L1073.88 677.315C1072.97 674.505 1072.25 671.132 1071.72 667.195L1067.31 634.692L1077.55 633.875L1085.63 693.422Z" fill="#253B8D"/>
<path d="M1134.32 687.644L1127.71 673.247L1112.17 675.209L1111.93 690.471L1100.84 691.871L1102.94 631.011L1117.99 629.111L1145.45 686.239L1134.32 687.644ZM1123.55 663.824L1117.44 650.562C1117.07 649.755 1116.19 647.734 1114.8 644.497C1113.43 641.231 1112.56 639.043 1112.18 637.935C1112.32 640.284 1112.42 642.886 1112.47 645.741C1112.52 648.569 1112.46 655.071 1112.3 665.245L1123.55 663.824Z" fill="#253B8D"/>
<path d="M1172.55 659.196L1179.27 681.598L1168.26 683.541L1151 625.981L1165.41 623.438C1171.51 622.361 1176.42 622.973 1180.15 625.271C1183.91 627.566 1186.65 631.6 1188.38 637.374C1190.56 644.645 1189.56 650.169 1185.38 653.947L1204.32 677.176L1192.54 679.255L1176.48 658.503L1172.55 659.196ZM1169.79 649.983L1172.62 649.483C1175.21 649.026 1176.86 647.988 1177.57 646.371C1178.27 644.727 1178.19 642.488 1177.34 639.654C1176.46 636.714 1175.23 634.734 1173.65 633.715C1172.08 632.665 1170.04 632.361 1167.53 632.804L1164.78 633.29L1169.79 649.983Z" fill="#253B8D"/>
<path d="M1227.05 635.173L1226.16 611.298L1237.57 608.65L1236.88 645.37L1245.72 667.777L1234.99 670.267L1226.32 648.281L1199.09 617.579L1210.58 614.912L1227.05 635.173Z" fill="#253B8D"/>
<path d="M1332.07 643.654L1301.32 653.291L1297.4 645.926L1300.49 629.38C1301.33 624.826 1301.8 621.503 1301.91 619.41C1302 617.292 1301.86 615.345 1301.5 613.569C1301.12 611.769 1300.46 609.998 1299.54 608.256C1298.45 606.225 1297.15 604.857 1295.61 604.152C1294.1 603.44 1292.56 603.329 1290.99 603.821C1289.61 604.255 1288.49 605 1287.65 606.054C1286.81 607.108 1286 608.788 1285.21 611.095L1276.16 607.158C1277.37 603.42 1278.87 600.65 1280.66 598.848C1282.44 597.046 1284.71 595.715 1287.46 594.855C1292.08 593.404 1296.36 593.531 1300.29 595.235C1304.24 596.931 1307.41 600.016 1309.8 604.491C1310.88 606.522 1311.67 608.519 1312.16 610.48C1312.66 612.442 1312.91 614.493 1312.92 616.635C1312.95 618.743 1312.77 621.015 1312.39 623.449C1311.99 625.859 1310.68 631.533 1308.45 640.472L1308.61 640.762L1327.39 634.874L1332.07 643.654Z" fill="#253B8D"/>
<path d="M1355.71 602.867C1361.51 612.067 1364.47 619.176 1364.6 624.194C1364.74 629.202 1362.09 632.717 1356.65 634.739C1351.2 636.761 1345.98 636.153 1340.99 632.915C1336.03 629.667 1330.66 623.466 1324.88 614.312C1319.09 605.135 1316.13 598.009 1316.01 592.936C1315.88 587.862 1318.48 584.338 1323.79 582.364C1329.22 580.352 1334.41 580.925 1339.39 584.084C1344.36 587.243 1349.8 593.504 1355.71 602.867ZM1335.36 610.421C1339.85 617.536 1343.21 622.209 1345.44 624.441C1347.69 626.64 1349.76 627.386 1351.66 626.68C1352.94 626.204 1353.6 625.303 1353.62 623.98C1353.66 622.647 1353.07 620.695 1351.82 618.124C1350.57 615.529 1348.37 611.741 1345.23 606.758C1340.81 599.759 1337.44 595.119 1335.11 592.837C1332.78 590.554 1330.68 589.761 1328.81 590.458C1326.91 591.163 1326.41 592.92 1327.33 595.726C1328.25 598.501 1330.93 603.399 1335.36 610.421Z" fill="#253B8D"/>
<path d="M1409.21 612.011L1379.71 624.968L1374.72 618.281L1375.46 601.861C1375.65 597.344 1375.65 594.064 1375.46 592.02C1375.25 589.954 1374.83 588.081 1374.21 586.4C1373.57 584.697 1372.66 583.055 1371.48 581.474C1370.11 579.629 1368.6 578.455 1366.96 577.951C1365.34 577.437 1363.78 577.51 1362.27 578.171C1360.94 578.755 1359.93 579.608 1359.24 580.73C1358.54 581.851 1357.96 583.577 1357.5 585.908L1347.85 583.149C1348.54 579.379 1349.65 576.515 1351.18 574.557C1352.72 572.599 1354.81 571.041 1357.44 569.885C1361.88 567.934 1366.2 567.556 1370.38 568.749C1374.6 569.931 1378.22 572.554 1381.25 576.616C1382.63 578.461 1383.7 580.306 1384.48 582.152C1385.26 583.997 1385.81 585.958 1386.12 588.035C1386.45 590.079 1386.59 592.304 1386.56 594.711C1386.51 597.096 1386 602.756 1385.04 611.692L1385.24 611.956L1403.26 604.039L1409.21 612.011Z" fill="#253B8D"/>
<path d="M1407.63 571.725C1411.64 569.637 1415.87 569.16 1420.32 570.292C1424.79 571.412 1428.84 574.025 1432.47 578.129C1436.81 583.034 1438.7 587.624 1438.15 591.897C1437.63 596.158 1434.74 599.655 1429.49 602.388C1424.82 604.818 1420.38 606.037 1416.16 606.044L1409.24 598.225C1411.15 598.339 1413.35 598.187 1415.82 597.77C1418.29 597.32 1420.37 596.658 1422.05 595.785C1427.27 593.064 1427.62 589.138 1423.08 584.008C1418.85 579.226 1414.19 578.157 1409.11 580.802C1407.09 581.852 1405.25 583.294 1403.57 585.128L1398.59 584.797L1380.27 561.378L1403.02 549.533L1409.63 557.014L1395.38 564.436L1403.26 574.543C1404.4 573.588 1405.86 572.649 1407.63 571.725Z" fill="#253B8D"/>
<path d="M490.218 539.377L503.416 547.178C508.794 550.357 511.846 553.532 512.571 556.703C513.315 559.855 511.814 563.296 508.066 567.027C505.6 569.483 502.883 571.158 499.916 572.054C496.968 572.931 494.198 572.881 491.608 571.904L491.317 572.194C493.64 574.522 494.625 576.892 494.272 579.302C493.918 581.712 492.373 584.28 489.635 587.006C485.77 590.854 481.479 593.124 476.761 593.816C472.085 594.504 467.566 593.558 463.202 590.978L447.633 581.775L490.218 539.377ZM482.149 561.783L486.572 564.398C488.601 565.597 490.474 565.996 492.193 565.595C493.912 565.193 495.655 564.113 497.422 562.354C499.189 560.594 499.98 559.059 499.793 557.747C499.627 556.416 498.529 555.151 496.5 553.952L492.431 551.546L482.149 561.783ZM475.537 568.366L463.624 580.228L468.471 583.093C470.476 584.278 472.467 584.654 474.444 584.22C476.445 583.801 478.503 582.537 480.62 580.43C484.426 576.64 484.3 573.546 480.243 571.148L475.537 568.366Z" fill="#BD2236"/>
<path d="M516.523 594.862L502.837 613.828L492.547 609.457L527.711 560.728L541.18 566.448C546.88 568.869 550.221 571.841 551.204 575.365C552.213 578.899 550.953 583.11 547.425 587.999C542.984 594.154 537.523 597.452 531.042 597.893L526.256 623.773L515.246 619.098L520.193 596.421L516.523 594.862ZM522.151 587.063L524.8 588.188C527.221 589.216 529.394 589.355 531.319 588.605C533.261 587.833 535.097 586.247 536.829 583.847C538.625 581.358 539.332 579.351 538.951 577.825C538.611 576.287 537.268 575.02 534.922 574.023L532.35 572.931L522.151 587.063Z" fill="#BD2236"/>
<path d="M573.092 641.1L547.309 632.799L576.149 580.08L601.932 588.381L597.297 596.855L582.155 591.98L575.29 604.529L589.336 609.051L584.681 617.561L570.635 613.039L562.646 627.643L577.787 632.518L573.092 641.1Z" fill="#BD2236"/>
<path d="M628.381 656.707L630.931 641.902L615.733 638.125L606.482 651.264L595.632 648.568L633.547 596.571L648.266 600.23L639.271 659.414L628.381 656.707ZM632.75 632.271L635.076 618.624C635.22 617.795 635.621 615.733 636.278 612.438C636.972 609.124 637.477 606.92 637.792 605.827C636.529 607.912 635.078 610.201 633.437 612.694C631.807 615.162 627.909 620.776 621.741 629.535L632.75 632.271Z" fill="#BD2236"/>
<path d="M697.144 672.102L685.426 669.917L683.489 643.619L677.731 647.068L671.324 667.287L660.334 665.237L678.487 607.952L689.477 610.002L680.475 638.409L687.033 630.544L703.377 612.594L715.135 614.786L693.618 637.042L697.144 672.102Z" fill="#BD2236"/>
<path d="M764.689 681.991L753.631 680.65L763.775 631.415L752.35 630.03L754.333 620.408L788.241 624.52L786.258 634.142L774.833 632.756L764.689 681.991Z" fill="#BD2236"/>
<path d="M840.599 689.771L829.453 688.906L832.898 662.785L818.187 661.643L814.741 687.764L803.595 686.899L811.453 627.322L822.6 628.188L819.477 651.863L834.188 653.005L837.311 629.33L848.458 630.195L840.599 689.771Z" fill="#BD2236"/>
<path d="M898.024 692.966L870.955 691.987L874.643 632.008L901.712 632.987L901.119 642.628L885.223 642.053L884.345 656.33L899.091 656.863L898.496 666.545L883.75 666.012L882.728 682.627L898.624 683.202L898.024 692.966Z" fill="#BD2236"/>
<path d="M949.222 634.01L964.552 633.768C970.798 633.669 975.379 634.816 978.294 637.209C981.208 639.574 982.736 643.401 982.878 648.687C982.971 652.166 982.296 655.095 980.853 657.475C979.408 659.827 977.391 661.27 974.801 661.804L974.812 662.215C978.233 663.011 980.727 664.561 982.297 666.865C983.866 669.17 984.703 672.253 984.806 676.115C984.953 681.566 983.601 685.863 980.753 689.004C977.931 692.118 973.986 693.715 968.917 693.795L950.834 694.081L949.222 634.01ZM960.391 658.003L965.529 657.922C967.885 657.885 969.526 657.229 970.451 655.954C971.376 654.678 971.805 652.795 971.738 650.302C971.671 647.809 971.075 646.037 969.951 644.986C968.825 643.908 967.085 643.387 964.728 643.425L960.002 643.499L960.391 658.003ZM960.642 667.33L961.093 684.135L966.723 684.046C969.052 684.01 970.759 683.27 971.844 681.828C972.956 680.386 973.473 678.171 973.393 675.186C973.248 669.817 970.82 667.17 966.108 667.244L960.642 667.33Z" fill="#BD2236"/>
<path d="M1010.95 692.652L1006.22 632.745L1016.74 632.257L1021.46 692.164L1010.95 692.652Z" fill="#BD2236"/>
<path d="M1084.74 687.733L1071.14 688.819L1046.77 647.164L1046.23 647.207C1047.36 650.438 1048.18 653.941 1048.69 657.715L1053.11 690.258L1042.78 691.082L1034.71 631.535L1048.39 630.443L1072.54 671.663L1072.99 671.627C1072.08 668.817 1071.36 665.443 1070.83 661.506L1066.42 629.004L1076.66 628.186L1084.74 687.733Z" fill="#BD2236"/>
<path d="M1133.43 681.956L1126.82 667.559L1111.28 669.52L1111.04 684.782L1099.95 686.183L1102.05 625.322L1117.1 623.422L1144.56 680.55L1133.43 681.956ZM1122.66 658.136L1116.55 644.873C1116.18 644.067 1115.3 642.045 1113.91 638.809C1112.54 635.542 1111.66 633.355 1111.29 632.247C1111.43 634.595 1111.52 637.197 1111.58 640.052C1111.63 642.881 1111.57 649.382 1111.41 659.557L1122.66 658.136Z" fill="#BD2236"/>
<path d="M1171.66 653.507L1178.38 675.909L1167.37 677.852L1150.11 620.292L1164.52 617.749C1170.61 616.673 1175.53 617.284 1179.26 619.583C1183.01 621.877 1185.76 625.911 1187.49 631.686C1189.67 638.956 1188.67 644.48 1184.49 648.258L1203.43 671.487L1191.65 673.566L1175.58 652.814L1171.66 653.507ZM1168.9 644.294L1171.73 643.794C1174.32 643.337 1175.97 642.3 1176.68 640.683C1177.38 639.039 1177.3 636.8 1176.45 633.965C1175.57 631.025 1174.34 629.046 1172.75 628.027C1171.19 626.976 1169.15 626.673 1166.64 627.115L1163.89 627.601L1168.9 644.294Z" fill="#BD2236"/>
<path d="M1226.16 629.484L1225.26 605.609L1236.67 602.961L1235.99 639.682L1244.82 662.089L1234.09 664.579L1225.42 642.592L1198.2 611.89L1209.69 609.224L1226.16 629.484Z" fill="#BD2236"/>
<path d="M1331.18 637.966L1300.43 647.603L1296.51 640.238L1299.59 623.691C1300.43 619.138 1300.91 615.815 1301.01 613.721C1301.11 611.604 1300.97 609.657 1300.6 607.881C1300.22 606.08 1299.57 604.309 1298.64 602.568C1297.56 600.536 1296.25 599.168 1294.72 598.464C1293.21 597.751 1291.67 597.641 1290.1 598.133C1288.72 598.567 1287.6 599.311 1286.76 600.365C1285.92 601.419 1285.1 603.1 1284.32 605.406L1275.27 601.47C1276.48 597.731 1277.98 594.961 1279.77 593.159C1281.55 591.358 1283.82 590.027 1286.56 589.166C1291.19 587.716 1295.47 587.842 1299.4 589.547C1303.35 591.242 1306.52 594.328 1308.9 598.802C1309.99 600.834 1310.77 602.83 1311.27 604.792C1311.76 606.753 1312.02 608.805 1312.03 610.946C1312.05 613.055 1311.88 615.326 1311.49 617.76C1311.1 620.17 1309.79 625.845 1307.56 634.784L1307.72 635.074L1326.5 629.186L1331.18 637.966Z" fill="#BD2236"/>
<path d="M1354.81 597.178C1360.62 606.379 1363.58 613.488 1363.7 618.506C1363.85 623.514 1361.2 627.029 1355.76 629.051C1350.31 631.073 1345.09 630.465 1340.1 627.227C1335.13 623.979 1329.76 617.778 1323.99 608.624C1318.2 599.446 1315.24 592.321 1315.11 587.247C1314.99 582.174 1317.59 578.65 1322.9 576.676C1328.32 574.663 1333.52 575.236 1338.49 578.395C1343.47 581.555 1348.91 587.816 1354.81 597.178ZM1334.47 604.732C1338.96 611.847 1342.32 616.52 1344.55 618.752C1346.79 620.951 1348.87 621.698 1350.77 620.992C1352.05 620.515 1352.7 619.615 1352.72 618.291C1352.77 616.958 1352.17 615.006 1350.93 612.435C1349.68 609.841 1347.48 606.052 1344.33 601.07C1339.92 594.071 1336.55 589.43 1334.22 587.148C1331.89 584.866 1329.79 584.073 1327.91 584.769C1326.01 585.475 1325.52 587.231 1326.43 590.038C1327.36 592.812 1330.04 597.71 1334.47 604.732Z" fill="#BD2236"/>
<path d="M1408.32 606.323L1378.81 619.28L1373.82 612.593L1374.56 596.173C1374.76 591.656 1374.76 588.375 1374.56 586.331C1374.36 584.266 1373.94 582.392 1373.32 580.711C1372.68 579.009 1371.77 577.367 1370.59 575.786C1369.22 573.941 1367.71 572.767 1366.07 572.263C1364.45 571.748 1362.89 571.821 1361.38 572.482C1360.05 573.066 1359.04 573.919 1358.34 575.041C1357.65 576.163 1357.07 577.889 1356.61 580.219L1346.96 577.461C1347.64 573.69 1348.75 570.826 1350.29 568.868C1351.83 566.91 1353.91 565.353 1356.55 564.196C1360.99 562.246 1365.3 561.867 1369.49 563.06C1373.7 564.243 1377.33 566.865 1380.36 570.928C1381.74 572.773 1382.81 574.618 1383.59 576.463C1384.37 578.309 1384.91 580.27 1385.23 582.347C1385.56 584.39 1385.7 586.616 1385.67 589.022C1385.61 591.407 1385.11 597.068 1384.15 606.004L1384.34 606.267L1402.37 598.351L1408.32 606.323Z" fill="#BD2236"/>
<path d="M1406.74 566.037C1410.75 563.949 1414.98 563.471 1419.42 564.604C1423.89 565.724 1427.94 568.336 1431.58 572.441C1435.92 577.346 1437.81 581.935 1437.26 586.209C1436.73 590.469 1433.85 593.966 1428.6 596.7C1423.93 599.129 1419.49 600.348 1415.27 600.356L1408.35 592.536C1410.26 592.65 1412.45 592.499 1414.92 592.082C1417.4 591.631 1419.48 590.97 1421.16 590.096C1426.38 587.376 1426.72 583.45 1422.19 578.319C1417.95 573.537 1413.3 572.469 1408.22 575.113C1406.2 576.164 1404.35 577.606 1402.68 579.439L1397.7 579.109L1379.37 555.689L1402.12 543.845L1408.74 551.325L1394.49 558.747L1402.36 568.855C1403.51 567.9 1404.97 566.961 1406.74 566.037Z" fill="#BD2236"/>
<path d="M491.701 533.688L504.899 541.49C510.277 544.669 513.329 547.844 514.054 551.015C514.798 554.166 513.297 557.608 509.549 561.339C507.083 563.794 504.366 565.47 501.399 566.366C498.451 567.242 495.681 567.192 493.091 566.215L492.8 566.505C495.123 568.834 496.108 571.203 495.754 573.613C495.401 576.024 493.856 578.592 491.118 581.318C487.253 585.165 482.962 587.435 478.244 588.128C473.568 588.815 469.049 587.869 464.685 585.29L449.116 576.087L491.701 533.688ZM483.632 556.095L488.055 558.709C490.084 559.908 491.957 560.307 493.676 559.906C495.395 559.505 497.138 558.424 498.905 556.665C500.672 554.906 501.463 553.37 501.276 552.058C501.11 550.727 500.012 549.462 497.983 548.263L493.914 545.858L483.632 556.095ZM477.02 562.678L465.107 574.539L469.954 577.404C471.959 578.59 473.95 578.965 475.927 578.532C477.928 578.112 479.986 576.849 482.103 574.741C485.909 570.952 485.783 567.858 481.726 565.46L477.02 562.678Z" fill="white"/>
<path d="M518.006 589.174L504.32 608.139L494.03 603.769L529.195 555.039L542.663 560.759C548.363 563.18 551.705 566.152 552.687 569.676C553.696 573.211 552.436 577.422 548.908 582.31C544.467 588.466 539.006 591.764 532.525 592.205L527.739 618.085L516.729 613.409L521.676 590.732L518.006 589.174ZM523.634 581.375L526.283 582.499C528.704 583.528 530.877 583.667 532.802 582.917C534.744 582.144 536.58 580.558 538.312 578.159C540.108 575.67 540.815 573.662 540.434 572.136C540.094 570.598 538.751 569.331 536.405 568.335L533.833 567.242L523.634 581.375Z" fill="white"/>
<path d="M574.575 635.412L548.792 627.111L577.632 574.392L603.416 582.693L598.78 591.167L583.638 586.292L576.773 598.841L590.819 603.363L586.164 611.873L572.118 607.351L564.129 621.955L579.27 626.83L574.575 635.412Z" fill="white"/>
<path d="M629.864 651.019L632.414 636.214L617.216 632.437L607.965 645.576L597.115 642.879L635.03 590.883L649.749 594.541L640.754 653.725L629.864 651.019ZM634.234 626.583L636.559 612.936C636.703 612.107 637.104 610.045 637.761 606.749C638.456 603.435 638.96 601.232 639.275 600.138C638.012 602.223 636.561 604.512 634.92 607.006C633.29 609.473 629.392 615.087 623.224 623.847L634.234 626.583Z" fill="white"/>
<path d="M698.627 666.413L686.909 664.228L684.972 637.93L679.214 641.38L672.807 661.598L661.817 659.549L679.969 602.263L690.96 604.313L681.958 632.721L688.516 624.855L704.86 606.905L716.618 609.098L695.101 631.354L698.627 666.413Z" fill="white"/>
<path d="M766.172 676.302L755.114 674.961L765.258 625.727L753.833 624.341L755.816 614.72L789.724 618.832L787.741 628.453L776.316 627.068L766.172 676.302Z" fill="white"/>
<path d="M842.082 684.083L830.936 683.218L834.381 657.097L819.67 655.955L816.224 682.076L805.078 681.21L812.936 621.634L824.083 622.499L820.96 646.175L835.671 647.317L838.794 623.641L849.941 624.506L842.082 684.083Z" fill="white"/>
<path d="M899.507 687.278L872.438 686.298L876.126 626.319L903.195 627.299L902.603 636.94L886.706 636.364L885.828 650.641L900.575 651.175L899.979 660.857L885.233 660.323L884.211 676.939L900.107 677.514L899.507 687.278Z" fill="white"/>
<path d="M950.705 628.321L966.035 628.079C972.282 627.98 976.862 629.128 979.777 631.521C982.691 633.886 984.219 637.712 984.361 642.999C984.455 646.478 983.779 649.407 982.336 651.786C980.891 654.138 978.874 655.582 976.285 656.116L976.296 656.527C979.716 657.322 982.211 658.872 983.78 661.177C985.349 663.481 986.186 666.565 986.29 670.427C986.436 675.878 985.085 680.174 982.236 683.316C979.414 686.43 975.469 688.026 970.4 688.106L952.317 688.392L950.705 628.321ZM961.874 652.315L967.012 652.234C969.368 652.197 971.009 651.54 971.934 650.265C972.859 648.99 973.288 647.106 973.221 644.613C973.154 642.121 972.559 640.349 971.434 639.298C970.309 638.22 968.568 637.699 966.212 637.736L961.485 637.811L961.874 652.315ZM962.125 661.642L962.576 678.447L968.206 678.358C970.535 678.321 972.242 677.582 973.327 676.14C974.44 674.697 974.956 672.483 974.876 669.497C974.732 664.128 972.303 661.481 967.591 661.556L962.125 661.642Z" fill="white"/>
<path d="M1012.43 686.963L1007.71 627.057L1018.22 626.569L1022.94 686.476L1012.43 686.963Z" fill="white"/>
<path d="M1086.22 682.045L1072.62 683.131L1048.25 641.476L1047.72 641.518C1048.85 644.749 1049.67 648.252 1050.18 652.026L1054.59 684.57L1044.27 685.394L1036.19 625.847L1049.87 624.754L1074.02 665.974L1074.47 665.938C1073.56 663.128 1072.85 659.755 1072.31 655.818L1067.9 623.315L1078.15 622.498L1086.22 682.045Z" fill="white"/>
<path d="M1134.91 676.267L1128.3 661.87L1112.77 663.832L1112.52 679.094L1101.43 680.494L1103.54 619.634L1118.58 617.734L1146.04 674.862L1134.91 676.267ZM1124.14 652.447L1118.03 639.185C1117.66 638.378 1116.78 636.357 1115.39 633.12C1114.02 629.854 1113.15 627.666 1112.77 626.558C1112.91 628.907 1113.01 631.509 1113.06 634.364C1113.11 637.192 1113.05 643.694 1112.89 653.868L1124.14 652.447Z" fill="white"/>
<path d="M1173.14 647.819L1179.86 670.221L1168.85 672.164L1151.59 614.604L1166 612.061C1172.1 610.984 1177.01 611.596 1180.74 613.894C1184.5 616.189 1187.24 620.223 1188.97 625.997C1191.15 633.268 1190.15 638.792 1185.97 642.57L1204.91 665.799L1193.14 667.878L1177.07 647.126L1173.14 647.819ZM1170.38 638.606L1173.21 638.106C1175.8 637.649 1177.45 636.612 1178.16 634.994C1178.86 633.351 1178.79 631.111 1177.94 628.277C1177.05 625.337 1175.82 623.357 1174.24 622.338C1172.67 621.288 1170.63 620.984 1168.12 621.427L1165.37 621.913L1170.38 638.606Z" fill="white"/>
<path d="M1227.64 623.796L1226.75 599.921L1238.16 597.273L1237.47 633.993L1246.31 656.4L1235.58 658.89L1226.91 636.904L1199.68 606.202L1211.17 603.535L1227.64 623.796Z" fill="white"/>
<path d="M1332.66 632.277L1301.91 641.914L1297.99 634.549L1301.08 618.003C1301.92 613.449 1302.39 610.126 1302.5 608.033C1302.59 605.915 1302.45 603.968 1302.09 602.192C1301.71 600.392 1301.05 598.621 1300.13 596.88C1299.04 594.848 1297.74 593.48 1296.2 592.775C1294.69 592.063 1293.15 591.952 1291.59 592.444C1290.2 592.878 1289.09 593.623 1288.24 594.677C1287.4 595.731 1286.59 597.411 1285.8 599.718L1276.75 595.781C1277.96 592.043 1279.46 589.273 1281.25 587.471C1283.04 585.669 1285.3 584.338 1288.05 583.478C1292.67 582.027 1296.95 582.154 1300.88 583.858C1304.84 585.554 1308 588.639 1310.39 593.114C1311.47 595.145 1312.26 597.142 1312.75 599.103C1313.25 601.065 1313.5 603.116 1313.51 605.258C1313.54 607.367 1313.36 609.638 1312.98 612.072C1312.58 614.482 1311.27 620.156 1309.04 629.095L1309.2 629.385L1327.99 623.497L1332.66 632.277Z" fill="white"/>
<path d="M1356.3 591.49C1362.1 600.69 1365.06 607.799 1365.19 612.817C1365.33 617.825 1362.68 621.34 1357.24 623.362C1351.79 625.384 1346.57 624.776 1341.58 621.538C1336.62 618.29 1331.25 612.089 1325.47 602.935C1319.68 593.758 1316.72 586.632 1316.6 581.559C1316.47 576.485 1319.07 572.961 1324.39 570.987C1329.81 568.975 1335 569.548 1339.98 572.707C1344.95 575.866 1350.39 582.127 1356.3 591.49ZM1335.95 599.044C1340.44 606.159 1343.8 610.832 1346.03 613.064C1348.28 615.263 1350.35 616.009 1352.25 615.304C1353.53 614.827 1354.19 613.926 1354.21 612.603C1354.25 611.27 1353.66 609.318 1352.42 606.747C1351.16 604.152 1348.96 600.364 1345.82 595.381C1341.4 588.382 1338.03 583.742 1335.7 581.46C1333.37 579.177 1331.27 578.384 1329.4 579.081C1327.5 579.786 1327 581.543 1327.92 584.35C1328.84 587.124 1331.52 592.022 1335.95 599.044Z" fill="white"/>
<path d="M1409.8 600.634L1380.3 613.591L1375.31 606.904L1376.05 590.484C1376.24 585.967 1376.24 582.687 1376.05 580.643C1375.84 578.577 1375.42 576.704 1374.8 575.023C1374.16 573.32 1373.26 571.678 1372.08 570.097C1370.7 568.252 1369.19 567.078 1367.55 566.574C1365.93 566.06 1364.37 566.133 1362.87 566.794C1361.54 567.378 1360.52 568.231 1359.83 569.353C1359.13 570.474 1358.56 572.2 1358.1 574.531L1348.44 571.772C1349.13 568.002 1350.24 565.138 1351.77 563.18C1353.31 561.222 1355.4 559.664 1358.03 558.508C1362.47 556.557 1366.79 556.179 1370.97 557.372C1375.19 558.554 1378.81 561.177 1381.84 565.24C1383.22 567.084 1384.3 568.929 1385.07 570.775C1385.85 572.62 1386.4 574.581 1386.71 576.658C1387.04 578.702 1387.19 580.927 1387.15 583.334C1387.1 585.719 1386.59 591.379 1385.63 600.315L1385.83 600.579L1403.85 592.662L1409.8 600.634Z" fill="white"/>
<path d="M1408.22 560.348C1412.23 558.26 1416.46 557.783 1420.91 558.915C1425.38 560.035 1429.43 562.648 1433.06 566.752C1437.4 571.657 1439.29 576.247 1438.74 580.52C1438.22 584.781 1435.33 588.278 1430.08 591.011C1425.41 593.441 1420.97 594.66 1416.75 594.667L1409.83 586.848C1411.75 586.962 1413.94 586.81 1416.41 586.393C1418.88 585.943 1420.96 585.281 1422.64 584.408C1427.86 581.687 1428.21 577.761 1423.67 572.631C1419.44 567.849 1414.78 566.78 1409.7 569.425C1407.69 570.475 1405.84 571.917 1404.16 573.751L1399.18 573.42L1380.86 550.001L1403.61 538.156L1410.22 545.637L1395.97 553.059L1403.85 563.166C1404.99 562.211 1406.45 561.272 1408.22 560.348Z" fill="white"/>
</g>
</g>
<defs>
<filter id="filter0_f_70_394" x="41.6" y="-423.9" width="1737.8" height="1621.8" filterUnits="userSpaceOnUse" color-interpolation-filters="sRGB">
<feFlood flood-opacity="0" result="BackgroundImageFix"/>
<feBlend mode="normal" in="SourceGraphic" in2="BackgroundImageFix" result="shape"/>
<feGaussianBlur stdDeviation="157.95" result="effect1_foregroundBlur_70_394"/>
</filter>
<filter id="filter1_f_70_394" x="491.402" y="30.9018" width="891.72" height="832.196" filterUnits="userSpaceOnUse" color-interpolation-filters="sRGB">
<feFlood flood-opacity="0" result="BackgroundImageFix"/>
<feBlend mode="normal" in="SourceGraphic" in2="BackgroundImageFix" result="shape"/>
<feGaussianBlur stdDeviation="81.0491" result="effect1_foregroundBlur_70_394"/>
</filter>
<filter id="filter2_f_70_394" x="613.538" y="72.8657" width="600.247" height="462.49" filterUnits="userSpaceOnUse" color-interpolation-filters="sRGB">
<feFlood flood-opacity="0" result="BackgroundImageFix"/>
<feBlend mode="normal" in="SourceGraphic" in2="BackgroundImageFix" result="shape"/>
<feGaussianBlur stdDeviation="0.520501" result="effect1_foregroundBlur_70_394"/>
</filter>
<filter id="filter3_f_70_394" x="927.021" y="323.133" width="143.629" height="70.2206" filterUnits="userSpaceOnUse" color-interpolation-filters="sRGB">
<feFlood flood-opacity="0" result="BackgroundImageFix"/>
<feBlend mode="normal" in="SourceGraphic" in2="BackgroundImageFix" result="shape"/>
<feGaussianBlur stdDeviation="2.08201" result="effect1_foregroundBlur_70_394"/>
</filter>
<filter id="filter4_d_70_394" x="356.187" y="446.832" width="1182.07" height="348.973" filterUnits="userSpaceOnUse" color-interpolation-filters="sRGB">
<feFlood flood-opacity="0" result="BackgroundImageFix"/>
<feColorMatrix in="SourceAlpha" type="matrix" values="0 0 0 0 0 0 0 0 0 0 0 0 0 0 0 0 0 0 127 0" result="hardAlpha"/>
<feOffset dy="4.58953"/>
<feGaussianBlur stdDeviation="45.7232"/>
<feComposite in2="hardAlpha" operator="out"/>
<feColorMatrix type="matrix" values="0 0 0 0 0.979222 0 0 0 0 0.907444 0 0 0 0 0.920987 0 0 0 0.41 0"/>
<feBlend mode="normal" in2="BackgroundImageFix" result="effect1_dropShadow_70_394"/>
<feBlend mode="normal" in="SourceGraphic" in2="effect1_dropShadow_70_394" result="shape"/>
</filter>
<linearGradient id="paint0_linear_70_394" x1="946.5" y1="94.5" x2="9.99996" y2="95" gradientUnits="userSpaceOnUse">
<stop stop-color="#212253"/>
<stop offset="1" stop-color="#3F3C7A"/>
</linearGradient>
<linearGradient id="paint1_linear_70_394" x1="742" y1="537.702" x2="-1.34954e-05" y2="539" gradientUnits="userSpaceOnUse">
<stop stop-color="#212254"/>
<stop offset="1" stop-color="#3F3C7A"/>
</linearGradient>
<linearGradient id="paint2_linear_70_394" x1="1040.64" y1="279.911" x2="1040.64" y2="459.035" gradientUnits="userSpaceOnUse">
<stop offset="0.592029" stop-color="#010107"/>
<stop offset="1" stop-color="#300207"/>
</linearGradient>
<linearGradient id="paint3_linear_70_394" x1="873.884" y1="74.0262" x2="890.248" y2="366.944" gradientUnits="userSpaceOnUse">
<stop stop-color="#010107"/>
<stop offset="1" stop-color="#810206"/>
</linearGradient>
<linearGradient id="paint4_linear_70_394" x1="611.394" y1="438.217" x2="700.854" y2="532.476" gradientUnits="userSpaceOnUse">
<stop offset="0.742437" stop-color="#010107"/>
<stop offset="1" stop-color="#810206"/>
</linearGradient>
<linearGradient id="paint5_linear_70_394" x1="715.424" y1="365.011" x2="735.402" y2="406.3" gradientUnits="userSpaceOnUse">
<stop offset="0.482909" stop-color="#010107"/>
<stop offset="1" stop-color="#810206"/>
</linearGradient>
<linearGradient id="paint6_linear_70_394" x1="801.811" y1="192.669" x2="732.064" y2="354.545" gradientUnits="userSpaceOnUse">
<stop offset="0.179519" stop-color="#010107"/>
<stop offset="0.471116" stop-color="#580207"/>
</linearGradient>
<linearGradient id="paint7_linear_70_394" x1="960.9" y1="265.509" x2="991.494" y2="338.44" gradientUnits="userSpaceOnUse">
<stop stop-color="#010107"/>
<stop offset="1" stop-color="#270207"/>
</linearGradient>
<linearGradient id="paint8_linear_70_394" x1="1011.05" y1="337.889" x2="990.233" y2="401.39" gradientUnits="userSpaceOnUse">
<stop stop-color="#010107"/>
<stop offset="0.880045" stop-color="#810206"/>
</linearGradient>
<clipPath id="clip0_70_394">
<rect width="1943" height="773" fill="white"/>
</clipPath>
</defs>
</svg>
